<svg width="15" height="13" viewBox="0 0 15 13" fill="none" xmlns="http://www.w3.org/2000/svg">
<path d="M14.4201 8.96719H5.11537L5.58256 8.01562L13.3451 8.00156C13.6076 8.00156 13.8326 7.81406 13.8794 7.55469L14.9544 1.5375C14.9826 1.37969 14.9404 1.21719 14.8372 1.09375C14.7863 1.033 14.7227 0.984065 14.6509 0.950339C14.5792 0.916613 14.5009 0.898903 14.4216 0.898438L4.54662 0.865625L4.46224 0.46875C4.40912 0.215625 4.18099 0.03125 3.92162 0.03125H1.50756C1.36127 0.03125 1.22098 0.0893608 1.11754 0.192799C1.0141 0.296237 0.955994 0.436529 0.955994 0.582813C0.955994 0.729096 1.0141 0.869388 1.11754 0.972826C1.22098 1.07626 1.36127 1.13438 1.50756 1.13438H3.47474L3.84349 2.8875L4.75131 7.28281L3.58256 9.19063C3.52186 9.27254 3.4853 9.36981 3.47702 9.47143C3.46874 9.57305 3.48906 9.67496 3.53568 9.76562C3.62943 9.95156 3.81849 10.0688 4.02787 10.0688H5.00912C4.79993 10.3466 4.68694 10.685 4.68724 11.0328C4.68724 11.9172 5.40599 12.6359 6.29037 12.6359C7.17474 12.6359 7.89349 11.9172 7.89349 11.0328C7.89349 10.6844 7.77787 10.3453 7.57162 10.0688H10.0888C9.87962 10.3466 9.76662 10.685 9.76693 11.0328C9.76693 11.9172 10.4857 12.6359 11.3701 12.6359C12.2544 12.6359 12.9732 11.9172 12.9732 11.0328C12.9732 10.6844 12.8576 10.3453 12.6513 10.0688H14.4216C14.7247 10.0688 14.9732 9.82187 14.9732 9.51719C14.9723 9.37106 14.9136 9.23122 14.81 9.12818C14.7064 9.02514 14.5662 8.96727 14.4201 8.96719V8.96719ZM4.77631 1.95312L13.7732 1.98281L12.8919 6.91719L5.82474 6.92969L4.77631 1.95312ZM6.29037 11.5266C6.01849 11.5266 5.79662 11.3047 5.79662 11.0328C5.79662 10.7609 6.01849 10.5391 6.29037 10.5391C6.56224 10.5391 6.78412 10.7609 6.78412 11.0328C6.78412 11.1638 6.7321 11.2894 6.6395 11.3819C6.54691 11.4745 6.42132 11.5266 6.29037 11.5266V11.5266ZM11.3701 11.5266C11.0982 11.5266 10.8763 11.3047 10.8763 11.0328C10.8763 10.7609 11.0982 10.5391 11.3701 10.5391C11.6419 10.5391 11.8638 10.7609 11.8638 11.0328C11.8638 11.1638 11.8118 11.2894 11.7192 11.3819C11.6266 11.4745 11.501 11.5266 11.3701 11.5266V11.5266Z" fill="#8C8C8C"/>
</svg>
